# xmcd
#
# Track frame offsets: 
#        151
#        23235
#        39657
#        57870
#        74481
#        90435
#        101097
#        122288
#        138031
#        153385
#        168848
#        185149
#        207719
#        227578
#        246936
#        259301
#        276598
#        293046
#        309173
#
# Disc length: 4437 seconds
#
# Revision: 0
# Processed by: cddbd v1.5.1PL0 Copyright (c) Steve Scherf et al.
# Submitted via: ExactAudioCopy v0.95a3
#
DISCID=12115313
DTITLE=Юрий Лоза - Только Лучшие Хиты
DYEAR=2001
DGENRE=Pop
TTITLE0=Плот
TTITLE1=Исполнительный Лист
TTITLE2=Цыганская Душа
TTITLE3=Зачем
TTITLE4=Сто Часов
TTITLE5=Памяти Высоцкого
TTITLE6=Пой, Моя Гитара
TTITLE7=Над Деревней Клюевкой
TTITLE8=Девочка В Баре
TTITLE9=Баба Люба
TTITLE10=Песенка Проститутки
TTITLE11=Что Сказано, То Сказано
TTITLE12=Я Умею Мечтать
TTITLE13=Опять
TTITLE14=Заповедные Места
TTITLE15=Пиво
TTITLE16=Гнусная Песня
TTITLE17=Новый Год
TTITLE18=Так Я Устроен
EXTD=
EXTT0=
EXTT1=
EXTT2=
EXTT3=
EXTT4=
EXTT5=
EXTT6=
EXTT7=
EXTT8=
EXTT9=
EXTT10=
EXTT11=
EXTT12=
EXTT13=
EXTT14=
EXTT15=
EXTT16=
EXTT17=
EXTT18=
PLAYORDER=
